<svg xmlns="http://www.w3.org/2000/svg" width="352" height="352" viewBox="0 0 352 352">
  <g id="White" transform="translate(-0.435 -0.021)">
    <g id="Ellipse_1" data-name="Ellipse 1" transform="translate(0.435 0.021)" fill="none" stroke="#fff" stroke-width="16">
      <circle cx="176" cy="176" r="176" stroke="none"/>
      <circle cx="176" cy="176" r="168" fill="none"/>
    </g>
    <g id="Group_31" data-name="Group 31" transform="translate(101.12 27.791)">
      <g id="Group_26" data-name="Group 26" transform="translate(0 0)">
        <g id="Group_27" data-name="Group 27">
          <g id="Group_28" data-name="Group 28">
            <g id="Group_17" data-name="Group 17" transform="translate(33.151 197.257)">
              <g id="flame" transform="translate(0 0)">
                <path id="Path_11" data-name="Path 11" d="M13.817,104.271A64.07,64.07,0,0,1,2.625,87.112C-.457,79.845-.57,62.321.972,54.393a50.821,50.821,0,0,1,10.13-21.8,21,21,0,0,0,5.285,15.415c-2.2-10.57,1.321-22.022,8.368-30.39S41.491,3.744,51.621,0C46.556,5.285,45.9,13.653,47.878,20.7s6.166,13.213,9.91,19.6,7.267,12.993,7.487,20.26c1.982-3.744,4.184-7.487,5.505-11.671s1.982-8.588.881-12.773a32.751,32.751,0,0,1,7.267,15.855,66.641,66.641,0,0,1,.22,18.718c-.881,6.827-7.037,20.135-10.781,25.861-.832,1.289-5.3,8.772-5.528,7.729-15.174-.532-4.122-3.339-7.145-2.46-.373-1.015,7.721-1.223,6.234-.713C48.275,103.528,28.068,103.926,13.817,104.271Z" transform="translate(79.699 104.378) rotate(180)" fill="#fff"/>
              </g>
            </g>
            <g id="Group_18" data-name="Group 18">
              <g id="idea" transform="translate(0 0)">
                <g id="Group_4" data-name="Group 4" transform="translate(0 0)">
                  <g id="Group_3" data-name="Group 3">
                    <path id="Path_4" data-name="Path 4" d="M58.593,1.666A74.226,74.226,0,0,0,1.719,58.373c-5.062,23.873,1.176,47.841,17.113,65.758A48.449,48.449,0,0,1,31.091,155.88v12.438a18.687,18.687,0,0,0,12.891,17.741c16.738,3.971,107.189-1.4,31.379,0-26.083-.891-17.637,2.167,29.9,0a18.687,18.687,0,0,0,12.891-17.741V155.88a49.094,49.094,0,0,1,12.621-32.16,74.462,74.462,0,0,0,18.474-49.1C149.252,27.535,106.155-8.27,58.593,1.666Zm47.125,166.652a6.226,6.226,0,0,1-6.219,6.219H49.748a6.226,6.226,0,0,1-6.219-6.219V162.1h62.19Zm15.706-52.8a62.362,62.362,0,0,0-15.364,34.139H43.188a61.459,61.459,0,0,0-15.062-33.8A62.148,62.148,0,0,1,61.138,13.841c39.812-8.32,75.676,21.578,75.676,60.777A62.032,62.032,0,0,1,121.425,115.522Z" fill="#fff"/>
                  </g>
                </g>
              </g>
              <path id="Path_12" data-name="Path 12" d="M32.523.069c17.907,0,39.79-.8,33.032,3.033S50.429,6.686,32.523,6.686,1.617,5.192.1,3.377,14.616.069,32.523.069Z" transform="translate(42.368 181.897)" fill="#fff"/>
              <path id="Path_16" data-name="Path 16" d="M25.592.884c13.637,0,23.79-1.846,23.79-.2S38.328,3.66,24.691,3.66,0,2.327,0,.682,11.956.884,25.592.884Z" transform="translate(49.724 196.833)" fill="#fff"/>
            </g>
          </g>
        </g>
      </g>
      <g id="fast-forward" transform="translate(40.084 117.128) rotate(-90)">
        <g id="Group_23" data-name="Group 23" transform="translate(41.296)">
          <g id="Group_22" data-name="Group 22">
            <path id="Path_13" data-name="Path 13" d="M53.192,32.82,24.6,1.055A3.179,3.179,0,0,0,22.24,0H3.18A3.174,3.174,0,0,0,.817,5.3L27.494,34.942.817,64.58a3.18,3.18,0,0,0,2.363,5.3H22.24A3.219,3.219,0,0,0,24.6,68.837L53.192,37.071A3.179,3.179,0,0,0,53.192,32.82Z" fill="#fff"/>
          </g>
        </g>
        <g id="Group_25" data-name="Group 25" transform="translate(0)">
          <g id="Group_24" data-name="Group 24">
            <path id="Path_14" data-name="Path 14" d="M53.192,32.82,24.6,1.055A3.179,3.179,0,0,0,22.24,0H3.18A3.174,3.174,0,0,0,.817,5.3L27.494,34.942.817,64.58a3.18,3.18,0,0,0,2.363,5.3H22.24A3.219,3.219,0,0,0,24.6,68.837L53.192,37.071A3.179,3.179,0,0,0,53.192,32.82Z" fill="#fff"/>
          </g>
        </g>
      </g>
    </g>
  </g>
</svg>
